                         WARNING!!! RUSSIAN AUDIO ONLY!!!!!!


An exploration of how the actions of individual lives impact one another in the past, present and future, as one soul is shaped from a killer into a hero, and an act of kindness ripples across centuries to inspire a revolution. 

 Directors: Tom Tykwer, Andy Wachowski 
 Writers: David Mitchell (novel), Lana Wachowski (written for the screen by)
 Stars: Tom Hanks, Halle Berry and Hugh Grant 

MediaInfo 0.7.61
General
Complete name                            : K:tempOblachnyi.atlas.2012.D.DVDRip_[Youtracker]_by_avproh.avi
Format                                   : AVI
Format/Info                              : Audio Video Interleave
Format profile                           : OpenDML
File size                                : 2.19 GiB
Duration                                 : 2h 45mn
Overall bit rate                         : 1 900 Kbps
Writing application                      : VirtualDubMod 1.5.10.3 | www.virtualdub-fr.org || (build 2550/release)
Writing library                          : VirtualDubMod build 2550/release

Video
ID                                       : 0
Format                                   : MPEG-4 Visual
Format profile                           : Advanced Simple@L5
Format settings, BVOP                    : 1
Format settings, QPel                    : No
Format settings, GMC                     : No warppoints
Format settings, Matrix                  : Custom
Codec ID                                 : XVID
Codec ID/Hint                            : XviD
Duration                                 : 2h 45mn
Bit rate                                 : 1 440 Kbps
Width                                    : 720 pixels
Height                                   : 304 pixels
Display aspect ratio                     : 2.35:1
Frame rate                               : 25.000 fps
Color space                              : YUV
Chroma subsampling                       : 4:2:0
Bit depth                                : 8 bits
Scan type                                : Progressive
Compression mode                         : Lossy
Bits/(Pixel*Frame)                       : 0.263
Stream size                              : 1.66 GiB (76%)
Writing library                          : XviD 65

Audio
ID                                       : 1
Format                                   : AC-3
Format/Info                              : Audio Coding 3
Mode extension                           : CM (complete main)
Format settings, Endianness              : Big
Codec ID                                 : 2000
Duration                                 : 2h 45mn
Bit rate mode                            : Constant
Bit rate                                 : 448 Kbps
Channel(s)                               : 6 channels
Channel positions                        : Front: L C R, Side: L R, LFE
Sampling rate                            : 48.0 KHz
Bit depth                                : 16 bits
Compression mode                         : Lossy
Stream size                              : 529 MiB (24%)
Alignment                                : Split accross interleaves
Interleave, duration                     : 40 ms (1.00 video frame)
Interleave, preload duration             : 500 ms

Screenshots: 
http://img96.imageshack.us/img96/482/grabt.png 
http://img577.imageshack.us/img577/7646/grab2k.png 
http://img811.imageshack.us/img811/2919/grab3cs.png 
http://img42.imageshack.us/img42/6310/grab4a.png 
http://img195.imageshack.us/img195/5672/grab5pq.png 
http://img703.imageshack.us/img703/4476/grab6dq.png 
http://img717.imageshack.us/img717/2829/grab7jl.png 
http://img59.imageshack.us/img59/5323/grab8g.png 
http://img24.imageshack.us/img24/4434/grab9w.png